<?xml version="1.0" standalone="no"?>
<!DOCTYPE svg PUBLIC "-//W3C//DTD SVG 20010904//EN"
 "http://www.w3.org/TR/2001/REC-SVG-20010904/DTD/svg10.dtd">
<svg version="1.0" xmlns="http://www.w3.org/2000/svg"
 width="400.000000pt" height="400.000000pt" viewBox="0 0 400.000000 400.000000"
 preserveAspectRatio="xMidYMid meet">
<metadata>
Created by potrace 1.14, written by Peter Selinger 2001-2017
</metadata>
<g transform="translate(0.000000,400.000000) scale(0.100000,-0.100000)"
fill="#000000" stroke="none">
<path d="M1885 3325 c-5 -9 -23 -18 -40 -21 -30 -5 -104 -35 -200 -81 -63 -30
-138 -80 -191 -128 -22 -21 -47 -43 -56 -49 -8 -6 -19 -29 -24 -50 -8 -33 -15
-41 -40 -48 -28 -7 -31 -11 -28 -40 2 -17 6 -34 9 -36 3 -3 0 -11 -6 -19 -9
-9 -8 -13 0 -13 7 0 8 -6 2 -17 -11 -21 -33 -99 -36 -129 -2 -12 -10 -32 -18
-45 -20 -31 -18 -228 2 -252 7 -9 10 -21 6 -27 -3 -5 -1 -10 4 -10 6 0 14 -18
17 -40 4 -24 16 -48 28 -58 12 -9 28 -37 35 -62 l14 -45 13 30 c12 28 13 23
14 -62 0 -55 4 -93 10 -93 6 0 11 -8 12 -17 1 -10 4 32 7 92 4 61 4 112 1 115
-10 10 -10 30 0 30 6 0 10 15 10 33 0 17 5 48 10 67 6 19 21 98 35 176 13 77
29 152 34 167 15 39 43 67 68 67 16 0 23 6 23 20 0 25 32 44 48 28 7 -7 12
-18 12 -25 0 -13 33 -13 46 -1 3 4 30 18 60 33 30 15 54 33 54 41 0 11 4 12
19 4 16 -8 23 -5 39 15 19 24 33 26 94 16 18 -3 35 -33 33 -60 -1 -17 3 -31 8
-31 5 0 7 -9 4 -20 -7 -27 17 -26 42 1 11 12 27 19 35 16 8 -3 20 1 26 9 17
19 40 18 41 -3 0 -12 2 -13 6 -5 3 9 9 10 18 2 16 -13 143 -20 148 -7 4 13 47
-14 47 -30 0 -7 6 -13 13 -13 8 0 24 -11 37 -25 13 -14 27 -25 31 -25 14 0 66
-55 82 -85 14 -28 17 -49 33 -185 3 -30 10 -63 15 -72 13 -24 20 -98 9 -98 -5
0 -11 8 -14 18 -4 10 -12 19 -19 20 -6 0 -41 5 -77 11 -36 6 -76 10 -90 10
-25 -1 27 -12 110 -23 l45 -7 3 -62 c3 -60 24 -98 30 -56 2 12 10 19 19 17 12
-2 16 -21 18 -91 1 -48 6 -91 9 -94 15 -15 31 -9 32 11 2 50 14 107 27 133 9
16 18 47 22 68 4 22 18 54 31 71 18 25 22 38 15 60 -8 32 6 67 29 72 8 2 21
11 28 20 11 14 11 18 -2 20 -8 2 -17 9 -20 17 -3 9 0 12 8 9 18 -7 26 39 10
60 -10 15 -9 21 8 38 21 21 21 21 2 35 -10 8 -26 18 -34 23 -12 7 -11 12 9 29
l23 20 -36 32 c-20 17 -36 37 -36 44 0 7 -11 33 -25 58 -14 24 -32 67 -40 94
-8 27 -28 68 -44 90 -24 33 -39 43 -90 57 -71 20 -85 34 -42 42 62 13 22 49
-50 45 -30 -1 -49 2 -49 9 0 7 -6 8 -19 0 -28 -15 -34 -13 -28 10 6 23 3 24
-24 10 -15 -9 -19 -7 -19 6 0 12 -3 14 -13 6 -21 -18 -47 -8 -63 24 -8 16 -25
39 -36 51 -25 26 -75 46 -83 32 -4 -5 -20 -3 -40 5 -18 8 -62 17 -97 20 -35 3
-70 7 -78 11 -8 3 -19 -2 -25 -10z m765 -1100 c0 -14 -4 -25 -9 -25 -4 0 -6
11 -3 25 2 14 6 25 8 25 2 0 4 -11 4 -25z m-63 -17 c-3 -8 -6 -5 -6 6 -1 11 2
17 5 13 3 -3 4 -12 1 -19z"/>
<path d="M1663 2303 c20 -2 54 -2 75 0 20 2 3 4 -38 4 -41 0 -58 -2 -37 -4z"/>
<path d="M2268 2303 c7 -3 16 -2 19 1 4 3 -2 6 -13 5 -11 0 -14 -3 -6 -6z"/>
<path d="M1535 2289 c-16 -5 -35 -15 -40 -23 -6 -7 -19 -15 -30 -17 -14 -3
-21 -14 -23 -37 -3 -29 -1 -32 22 -32 23 0 26 4 26 33 0 47 11 58 71 72 30 7
43 13 29 13 -14 0 -38 -4 -55 -9z"/>
<path d="M1887 2286 c66 -16 83 -31 82 -70 -1 -20 -3 -24 -6 -12 -4 17 -8 14
-19 -13 -17 -39 -18 -55 -4 -46 6 3 10 1 10 -4 0 -24 19 -9 25 19 4 17 12 30
18 30 8 0 7 4 -1 12 -9 9 -6 15 16 24 24 11 25 12 5 13 -12 1 -28 8 -37 16
-22 22 -81 45 -113 44 -20 0 -12 -5 24 -13z"/>
<path d="M2143 2285 c-18 -8 -33 -18 -33 -23 0 -5 -15 -14 -32 -20 -26 -8 -28
-10 -11 -11 24 -1 39 -16 24 -25 -5 -3 0 -24 11 -46 17 -35 22 -38 34 -25 16
16 10 85 -7 85 -5 0 -9 11 -9 24 0 20 8 26 53 39 32 10 43 16 27 16 -14 0 -40
-6 -57 -14z"/>
<path d="M1683 2271 c-18 -5 -45 -17 -60 -27 l-28 -19 33 -3 c19 -2 38 3 48
12 21 21 31 20 39 -5 10 -30 69 -23 73 9 4 27 7 27 42 2 16 -11 31 -16 34 -11
3 5 -7 17 -22 27 -30 20 -110 27 -159 15z"/>
<path d="M2250 2269 c-24 -10 -40 -26 -40 -42 0 -5 12 1 28 13 l27 22 3 -26
c2 -14 9 -26 15 -26 7 0 22 -3 34 -6 18 -5 23 -1 29 20 3 14 10 26 15 26 16 0
23 -32 9 -40 -8 -5 5 -7 31 -5 60 3 59 3 59 18 0 38 -151 71 -210 46z"/>
<path d="M1491 2154 c0 -11 3 -14 6 -6 3 7 2 16 -1 19 -3 4 -6 -2 -5 -13z"/>
<path d="M2225 1920 c-8 -24 -46 -36 -71 -22 -11 6 -27 6 -45 0 -30 -10 -239
-6 -257 6 -8 4 -10 2 -6 -7 8 -21 43 -35 109 -42 82 -9 80 -9 170 -2 84 6 115
25 115 68 0 25 -7 24 -15 -1z"/>
<path d="M2180 1755 c-31 -17 -141 -21 -332 -12 -47 2 -91 1 -97 -3 -16 -9 -2
-40 15 -33 8 3 30 -2 49 -11 19 -10 40 -14 45 -11 5 3 45 1 87 -5 58 -8 95 -8
143 0 148 26 144 25 131 1 -7 -11 -16 -21 -21 -21 -5 0 -31 -14 -59 -31 -30
-19 -65 -32 -90 -33 -22 -1 -44 -6 -48 -10 -5 -5 13 -7 39 -5 25 2 44 1 41 -3
-2 -5 -17 -8 -32 -8 -43 0 -91 11 -86 20 3 4 -2 10 -10 14 -11 4 -14 -1 -12
-15 5 -31 25 -39 103 -39 62 0 72 3 77 19 2 10 17 21 32 25 26 7 85 61 85 80
0 10 30 35 43 36 5 0 5 -4 2 -10 -8 -13 1 -13 24 2 29 18 14 43 -35 56 -55 15
-63 15 -94 -3z m40 -5 c0 -5 -10 -10 -22 -9 -22 0 -22 1 -3 9 11 5 21 9 23 9
1 1 2 -3 2 -9z"/>
<path d="M1890 1626 c0 -2 7 -7 16 -10 8 -3 12 -2 9 4 -6 10 -25 14 -25 6z"/>
<path d="M2484 1565 c-4 -8 -15 -15 -25 -15 -11 0 -24 -11 -30 -24 -7 -15 -17
-22 -29 -19 -12 3 -40 -18 -88 -66 -76 -75 -108 -95 -219 -131 -69 -22 -75
-22 -110 -7 -21 8 -45 16 -53 16 -44 0 -112 26 -146 54 -77 64 -114 81 -114
51 0 -11 -6 -15 -19 -11 -49 12 52 -100 140 -157 50 -32 89 -37 186 -25 81 11
94 10 117 -4 29 -19 66 -15 141 15 54 22 78 40 168 125 l58 54 -6 54 c-6 47
-5 54 13 64 18 10 38 41 26 41 -2 0 -7 -7 -10 -15z"/>
<path d="M1516 1295 c-30 -30 -40 -76 -33 -146 6 -50 45 -145 76 -182 13 -16
13 -21 1 -40 -12 -20 -12 -21 4 -7 16 13 21 11 50 -21 17 -19 55 -50 84 -68
30 -19 59 -40 66 -46 7 -7 27 -16 44 -20 18 -3 30 -10 28 -13 -2 -4 6 -7 17
-7 12 -1 42 -4 67 -7 l45 -7 -34 15 c-79 35 -243 159 -289 217 -26 33 -46 64
-44 69 1 4 -3 8 -8 8 -5 0 -10 7 -10 15 0 8 -3 15 -8 15 -12 0 -42 77 -42 108
0 16 7 51 15 78 8 27 15 52 15 57 0 14 -20 7 -44 -18z"/>
<path d="M2480 1298 c0 -7 14 -31 30 -52 21 -27 30 -51 30 -77 0 -34 -23 -126
-39 -159 -5 -8 -5 -24 0 -35 7 -18 8 -18 9 5 2 18 4 20 7 7 10 -37 -87 -140
-201 -215 -28 -19 -44 -31 -35 -29 10 3 35 11 58 18 23 7 41 16 41 21 0 4 5 8
12 8 15 0 93 57 134 99 19 19 48 58 64 86 36 64 39 115 10 209 -18 56 -27 70
-58 89 -62 39 -62 39 -62 25z"/>
<path d="M1190 1024 c-8 -1 -105 -15 -215 -29 -233 -31 -308 -52 -353 -98 -29
-29 -33 -41 -39 -111 l-6 -78 29 15 c86 44 207 65 444 77 102 5 233 12 291 16
l105 7 -32 61 c-18 33 -37 80 -44 104 l-11 42 -77 -1 c-42 -1 -84 -3 -92 -5z"/>
<path d="M2745 943 c-6 -38 -54 -133 -82 -164 -13 -15 -8 -17 59 -24 84 -7
117 -13 358 -54 223 -39 273 -53 327 -92 24 -17 47 -28 51 -25 3 4 8 37 10 74
l4 67 -54 62 c-43 50 -62 64 -103 76 -102 30 -192 50 -280 62 -49 8 -130 23
-180 34 -49 11 -93 21 -96 21 -4 0 -10 -17 -14 -37z"/>
<path d="M1801 644 c0 -11 3 -14 6 -6 3 7 2 16 -1 19 -3 4 -6 -2 -5 -13z"/>
<path d="M1720 610 c0 -5 5 -10 11 -10 5 0 7 5 4 10 -3 6 -8 10 -11 10 -2 0
-4 -4 -4 -10z"/>
<path d="M1805 580 c3 -5 10 -10 16 -10 5 0 9 5 9 10 0 6 -7 10 -16 10 -8 0
-12 -4 -9 -10z"/>
<path d="M1848 563 c7 -3 16 -2 19 1 4 3 -2 6 -13 5 -11 0 -14 -3 -6 -6z"/>
<path d="M1980 555 c-10 -12 -10 -15 4 -15 9 0 16 7 16 15 0 8 -2 15 -4 15 -2
0 -9 -7 -16 -15z"/>
<path d="M1900 550 c35 -11 60 -12 60 -1 0 5 -19 9 -42 9 -35 -1 -39 -2 -18
-8z"/>
<path d="M2022 551 c-11 -6 -10 -10 4 -15 20 -8 32 0 18 14 -5 5 -15 5 -22 1z"/>
<path d="M2160 539 c0 -5 5 -7 10 -4 6 3 10 8 10 11 0 2 -4 4 -10 4 -5 0 -10
-5 -10 -11z"/>
<path d="M651 470 c0 -8 4 -22 9 -30 12 -18 12 -2 0 25 -6 13 -9 15 -9 5z"/>
<path d="M650 398 c0 -9 -8 -21 -17 -27 -15 -8 -16 -13 -5 -30 7 -12 8 -21 3
-21 -9 0 -22 -44 -27 -95 -1 -16 -5 -55 -8 -85 -3 -30 -3 -74 0 -97 l6 -43 55
0 54 0 -5 58 c-7 80 -6 79 -16 57 -7 -17 -9 -15 -9 13 -1 17 4 32 10 32 7 0 9
14 5 38 -3 20 -7 63 -8 95 -2 31 -6 58 -10 58 -5 1 -12 2 -17 3 -21 3 -23 16
-3 16 16 0 22 6 21 23 0 12 -3 16 -6 8 -5 -11 -7 -11 -14 0 -7 11 -9 10 -9 -3z"/>
<path d="M365 258 c-2 -7 -16 -56 -30 -108 l-27 -95 33 -27 c31 -26 40 -28
120 -28 l87 0 -20 53 c-11 28 -25 59 -33 67 -7 8 -20 30 -29 47 -18 36 -76
103 -89 103 -4 0 -10 -6 -12 -12z"/>
<path d="M3366 238 c-3 -18 -10 -62 -15 -98 -6 -36 -8 -82 -5 -103 6 -34 9
-37 39 -37 41 0 45 13 31 103 -7 48 -14 66 -23 63 -13 -5 -17 18 -13 77 2 38
-8 34 -14 -5z"/>
<path d="M3562 170 c-14 -14 -22 -33 -22 -55 0 -24 -9 -45 -30 -68 -16 -19
-30 -37 -30 -41 0 -3 31 -6 70 -6 l69 0 -5 83 c-8 118 -12 124 -52 87z"/>
</g>
</svg>
